<svg width="12" height="12" viewBox="0 0 12 12" fill="none" xmlns="http://www.w3.org/2000/svg">
<path d="M4.66667 6.76667H0.666667C0.516377 6.76667 0.372243 6.82637 0.265973 6.93264C0.159702 7.03891 0.1 7.18304 0.1 7.33333V11.3333C0.1 11.4836 0.159702 11.6278 0.265973 11.734M4.66667 6.76667L0.265973 11.734M4.66667 6.76667C4.81696 6.76667 4.96109 6.82637 5.06736 6.93264C5.17363 7.03891 5.23333 7.18304 5.23333 7.33333V11.3333C5.23333 11.4836 5.17363 11.6278 5.06736 11.734C4.96109 11.8403 4.81696 11.9 4.66667 11.9H0.666667C0.516377 11.9 0.372243 11.8403 0.265973 11.734M4.66667 6.76667L0.265973 11.734M4 10.7667H4.1V10.6667V8V7.9H4H1.33333H1.23333V8V10.6667V10.7667H1.33333H4ZM10.6667 4.1H10.7667V4V1.33333V1.23333H10.6667H8H7.9V1.33333V4V4.1H8H10.6667ZM9.9 8.66667V8.76667H10H11.3333C11.4836 8.76667 11.6278 8.82637 11.734 8.93264C11.8403 9.03891 11.9 9.18304 11.9 9.33333C11.9 9.48362 11.8403 9.62776 11.734 9.73403C11.6278 9.8403 11.4836 9.9 11.3333 9.9H10H9.9V10V11.3333C9.9 11.4836 9.8403 11.6278 9.73403 11.734C9.62776 11.8403 9.48362 11.9 9.33333 11.9C9.18304 11.9 9.03891 11.8403 8.93264 11.734C8.82637 11.6278 8.76667 11.4836 8.76667 11.3333V10V9.9H8.66667H7.33333C7.18304 9.9 7.03891 9.8403 6.93264 9.73403C6.82637 9.62776 6.76667 9.48362 6.76667 9.33333C6.76667 9.18304 6.82637 9.03891 6.93264 8.93264C7.03891 8.82637 7.18304 8.76667 7.33333 8.76667H8.66667H8.76667V8.66667V7.33333C8.76667 7.18304 8.82637 7.03891 8.93264 6.93264C9.03891 6.82637 9.18304 6.76667 9.33333 6.76667C9.48362 6.76667 9.62776 6.82637 9.73403 6.93264C9.8403 7.03891 9.9 7.18304 9.9 7.33333V8.66667ZM4 4.1H4.1V4V1.33333V1.23333H4H1.33333H1.23333V1.33333V4V4.1H1.33333H4ZM7.33333 0.1H11.3333C11.4836 0.1 11.6278 0.159702 11.734 0.265973C11.8403 0.372243 11.9 0.516377 11.9 0.666667V4.66667C11.9 4.81696 11.8403 4.96109 11.734 5.06736C11.6278 5.17363 11.4836 5.23333 11.3333 5.23333H7.33333C7.18304 5.23333 7.03891 5.17363 6.93264 5.06736C6.82637 4.96109 6.76667 4.81696 6.76667 4.66667V0.666667C6.76667 0.516377 6.82637 0.372243 6.93264 0.265973C7.03891 0.159702 7.18304 0.1 7.33333 0.1ZM0.666667 0.1H4.66667C4.81696 0.1 4.96109 0.159702 5.06736 0.265973C5.17363 0.372243 5.23333 0.516377 5.23333 0.666667V4.66667C5.23333 4.81696 5.17363 4.96109 5.06736 5.06736C4.96109 5.17363 4.81696 5.23333 4.66667 5.23333H0.666667C0.516377 5.23333 0.372243 5.17363 0.265973 5.06736C0.159702 4.96109 0.1 4.81696 0.1 4.66667V0.666667C0.1 0.516377 0.159702 0.372243 0.265973 0.265973C0.372243 0.159702 0.516377 0.1 0.666667 0.1Z" fill="#0B0B0C" stroke="white" stroke-width="0.2"/>
</svg>
